<mxfile host="app.diagrams.net" agent="Mozilla/5.0 (Macintosh; Intel Mac OS X 10_15_7) AppleWebKit/537.36 (KHTML, like Gecko) Chrome/126.0.0.0 Safari/537.36" version="24.7.5">
  <diagram name="第 1 页" id="z-M220Xnp6lkOxsr2ZW7">
    <mxGraphModel dx="2074" dy="1121" grid="1" gridSize="10" guides="1" tooltips="1" connect="1" arrows="1" fold="1" page="1" pageScale="1" pageWidth="3300" pageHeight="4681" background="none" math="0" shadow="0">
      <root>
        <mxCell id="0" />
        <mxCell id="1" parent="0" />
        <mxCell id="sgNHsKeXC-34GHNsJ1Wm-19" style="edgeStyle=orthogonalEdgeStyle;rounded=0;orthogonalLoop=1;jettySize=auto;html=1;exitX=0.5;exitY=1;exitDx=0;exitDy=0;entryX=0.5;entryY=0;entryDx=0;entryDy=0;endArrow=none;endFill=0;" edge="1" parent="1" source="sgNHsKeXC-34GHNsJ1Wm-1" target="sgNHsKeXC-34GHNsJ1Wm-18">
          <mxGeometry relative="1" as="geometry" />
        </mxCell>
        <mxCell id="sgNHsKeXC-34GHNsJ1Wm-22" value="&lt;span style=&quot;background-color: rgb(204, 255, 204);&quot;&gt;&amp;nbsp;提交评审&amp;nbsp;&lt;/span&gt;" style="edgeLabel;html=1;align=center;verticalAlign=middle;resizable=0;points=[];labelBorderColor=default;labelBackgroundColor=#99CCFF;spacingTop=4;" vertex="1" connectable="0" parent="sgNHsKeXC-34GHNsJ1Wm-19">
          <mxGeometry x="0.0162" y="-1" relative="1" as="geometry">
            <mxPoint x="1" y="-7" as="offset" />
          </mxGeometry>
        </mxCell>
        <mxCell id="sgNHsKeXC-34GHNsJ1Wm-1" value="编辑中" style="ellipse;whiteSpace=wrap;html=1;aspect=fixed;" vertex="1" parent="1">
          <mxGeometry x="660" y="680" width="80" height="80" as="geometry" />
        </mxCell>
        <mxCell id="sgNHsKeXC-34GHNsJ1Wm-37" style="edgeStyle=orthogonalEdgeStyle;rounded=0;orthogonalLoop=1;jettySize=auto;html=1;exitX=1;exitY=0.5;exitDx=0;exitDy=0;entryX=0;entryY=0.5;entryDx=0;entryDy=0;" edge="1" parent="1" source="sgNHsKeXC-34GHNsJ1Wm-2" target="sgNHsKeXC-34GHNsJ1Wm-36">
          <mxGeometry relative="1" as="geometry" />
        </mxCell>
        <mxCell id="sgNHsKeXC-34GHNsJ1Wm-2" value="提交中" style="ellipse;whiteSpace=wrap;html=1;aspect=fixed;" vertex="1" parent="1">
          <mxGeometry x="960" y="1000" width="80" height="80" as="geometry" />
        </mxCell>
        <mxCell id="sgNHsKeXC-34GHNsJ1Wm-3" value="离线验收中" style="ellipse;whiteSpace=wrap;html=1;aspect=fixed;" vertex="1" parent="1">
          <mxGeometry x="1180" y="240" width="80" height="80" as="geometry" />
        </mxCell>
        <mxCell id="sgNHsKeXC-34GHNsJ1Wm-39" style="edgeStyle=orthogonalEdgeStyle;rounded=0;orthogonalLoop=1;jettySize=auto;html=1;exitX=1;exitY=0.5;exitDx=0;exitDy=0;entryX=0;entryY=0.5;entryDx=0;entryDy=0;" edge="1" parent="1" source="sgNHsKeXC-34GHNsJ1Wm-4" target="sgNHsKeXC-34GHNsJ1Wm-38">
          <mxGeometry relative="1" as="geometry" />
        </mxCell>
        <mxCell id="sgNHsKeXC-34GHNsJ1Wm-42" style="edgeStyle=orthogonalEdgeStyle;rounded=0;orthogonalLoop=1;jettySize=auto;html=1;exitX=0.5;exitY=1;exitDx=0;exitDy=0;entryX=0.5;entryY=0;entryDx=0;entryDy=0;" edge="1" parent="1" source="sgNHsKeXC-34GHNsJ1Wm-4" target="sgNHsKeXC-34GHNsJ1Wm-41">
          <mxGeometry relative="1" as="geometry" />
        </mxCell>
        <mxCell id="sgNHsKeXC-34GHNsJ1Wm-4" value="待评审" style="ellipse;whiteSpace=wrap;html=1;aspect=fixed;" vertex="1" parent="1">
          <mxGeometry x="660" y="1160" width="80" height="80" as="geometry" />
        </mxCell>
        <mxCell id="sgNHsKeXC-34GHNsJ1Wm-35" style="edgeStyle=orthogonalEdgeStyle;rounded=0;orthogonalLoop=1;jettySize=auto;html=1;exitX=1;exitY=0.5;exitDx=0;exitDy=0;" edge="1" parent="1" source="sgNHsKeXC-34GHNsJ1Wm-5" target="sgNHsKeXC-34GHNsJ1Wm-34">
          <mxGeometry relative="1" as="geometry" />
        </mxCell>
        <mxCell id="sgNHsKeXC-34GHNsJ1Wm-5" value="审核中" style="ellipse;whiteSpace=wrap;html=1;aspect=fixed;" vertex="1" parent="1">
          <mxGeometry x="960" y="840" width="80" height="80" as="geometry" />
        </mxCell>
        <mxCell id="sgNHsKeXC-34GHNsJ1Wm-6" value="需求驳回" style="ellipse;whiteSpace=wrap;html=1;aspect=fixed;" vertex="1" parent="1">
          <mxGeometry x="1560" y="240" width="80" height="80" as="geometry" />
        </mxCell>
        <mxCell id="sgNHsKeXC-34GHNsJ1Wm-7" value="开发中" style="ellipse;whiteSpace=wrap;html=1;aspect=fixed;" vertex="1" parent="1">
          <mxGeometry x="1680" y="240" width="80" height="80" as="geometry" />
        </mxCell>
        <mxCell id="sgNHsKeXC-34GHNsJ1Wm-8" value="测试中" style="ellipse;whiteSpace=wrap;html=1;aspect=fixed;" vertex="1" parent="1">
          <mxGeometry x="1800" y="240" width="80" height="80" as="geometry" />
        </mxCell>
        <mxCell id="sgNHsKeXC-34GHNsJ1Wm-9" value="已完成" style="ellipse;whiteSpace=wrap;html=1;aspect=fixed;" vertex="1" parent="1">
          <mxGeometry x="930" y="380" width="80" height="80" as="geometry" />
        </mxCell>
        <mxCell id="sgNHsKeXC-34GHNsJ1Wm-10" value="已终止" style="ellipse;whiteSpace=wrap;html=1;aspect=fixed;" vertex="1" parent="1">
          <mxGeometry x="1060" y="380" width="80" height="80" as="geometry" />
        </mxCell>
        <mxCell id="sgNHsKeXC-34GHNsJ1Wm-11" value="待验收" style="ellipse;whiteSpace=wrap;html=1;aspect=fixed;" vertex="1" parent="1">
          <mxGeometry x="1190" y="380" width="80" height="80" as="geometry" />
        </mxCell>
        <mxCell id="sgNHsKeXC-34GHNsJ1Wm-13" value="验收驳回" style="ellipse;whiteSpace=wrap;html=1;aspect=fixed;" vertex="1" parent="1">
          <mxGeometry x="1320" y="380" width="80" height="80" as="geometry" />
        </mxCell>
        <mxCell id="sgNHsKeXC-34GHNsJ1Wm-15" style="edgeStyle=orthogonalEdgeStyle;rounded=0;orthogonalLoop=1;jettySize=auto;html=1;exitX=0.5;exitY=1;exitDx=0;exitDy=0;" edge="1" parent="1" source="sgNHsKeXC-34GHNsJ1Wm-14" target="sgNHsKeXC-34GHNsJ1Wm-1">
          <mxGeometry relative="1" as="geometry" />
        </mxCell>
        <mxCell id="sgNHsKeXC-34GHNsJ1Wm-14" value="" style="ellipse;whiteSpace=wrap;html=1;aspect=fixed;fillColor=#000000;" vertex="1" parent="1">
          <mxGeometry x="680" y="560" width="40" height="40" as="geometry" />
        </mxCell>
        <mxCell id="sgNHsKeXC-34GHNsJ1Wm-21" style="edgeStyle=orthogonalEdgeStyle;rounded=0;orthogonalLoop=1;jettySize=auto;html=1;exitX=1;exitY=0.5;exitDx=0;exitDy=0;entryX=0;entryY=0.5;entryDx=0;entryDy=0;" edge="1" parent="1" source="sgNHsKeXC-34GHNsJ1Wm-18" target="sgNHsKeXC-34GHNsJ1Wm-5">
          <mxGeometry relative="1" as="geometry" />
        </mxCell>
        <mxCell id="sgNHsKeXC-34GHNsJ1Wm-25" value="【特征下线】" style="edgeLabel;html=1;align=center;verticalAlign=middle;resizable=0;points=[];" vertex="1" connectable="0" parent="sgNHsKeXC-34GHNsJ1Wm-21">
          <mxGeometry x="-0.32" y="2" relative="1" as="geometry">
            <mxPoint x="15" y="2" as="offset" />
          </mxGeometry>
        </mxCell>
        <mxCell id="sgNHsKeXC-34GHNsJ1Wm-29" value="" style="edgeStyle=orthogonalEdgeStyle;rounded=0;orthogonalLoop=1;jettySize=auto;html=1;exitX=0.5;exitY=1;exitDx=0;exitDy=0;entryX=0.5;entryY=0;entryDx=0;entryDy=0;" edge="1" parent="1" source="sgNHsKeXC-34GHNsJ1Wm-18" target="sgNHsKeXC-34GHNsJ1Wm-28">
          <mxGeometry relative="1" as="geometry" />
        </mxCell>
        <mxCell id="sgNHsKeXC-34GHNsJ1Wm-18" value="需求类型" style="rhombus;whiteSpace=wrap;html=1;" vertex="1" parent="1">
          <mxGeometry x="660" y="852.5" width="80" height="55" as="geometry" />
        </mxCell>
        <mxCell id="sgNHsKeXC-34GHNsJ1Wm-30" style="edgeStyle=orthogonalEdgeStyle;rounded=0;orthogonalLoop=1;jettySize=auto;html=1;exitX=1;exitY=0.5;exitDx=0;exitDy=0;" edge="1" parent="1" source="sgNHsKeXC-34GHNsJ1Wm-28" target="sgNHsKeXC-34GHNsJ1Wm-2">
          <mxGeometry relative="1" as="geometry" />
        </mxCell>
        <mxCell id="sgNHsKeXC-34GHNsJ1Wm-31" value="【实时特征，离线特征】" style="edgeLabel;html=1;align=center;verticalAlign=middle;resizable=0;points=[];" vertex="1" connectable="0" parent="sgNHsKeXC-34GHNsJ1Wm-30">
          <mxGeometry x="-0.0273" relative="1" as="geometry">
            <mxPoint x="13" as="offset" />
          </mxGeometry>
        </mxCell>
        <mxCell id="sgNHsKeXC-34GHNsJ1Wm-32" style="edgeStyle=orthogonalEdgeStyle;rounded=0;orthogonalLoop=1;jettySize=auto;html=1;exitX=0.5;exitY=1;exitDx=0;exitDy=0;entryX=0.5;entryY=0;entryDx=0;entryDy=0;" edge="1" parent="1" source="sgNHsKeXC-34GHNsJ1Wm-28" target="sgNHsKeXC-34GHNsJ1Wm-4">
          <mxGeometry relative="1" as="geometry" />
        </mxCell>
        <mxCell id="sgNHsKeXC-34GHNsJ1Wm-28" value="特征类型" style="rhombus;whiteSpace=wrap;html=1;" vertex="1" parent="1">
          <mxGeometry x="660" y="1012.5" width="80" height="55" as="geometry" />
        </mxCell>
        <mxCell id="sgNHsKeXC-34GHNsJ1Wm-34" value="创建需求下&lt;div&gt;线&lt;span style=&quot;background-color: initial;&quot;&gt;审批工单&lt;/span&gt;&lt;/div&gt;" style="rounded=1;whiteSpace=wrap;html=1;" vertex="1" parent="1">
          <mxGeometry x="1120" y="860" width="120" height="40" as="geometry" />
        </mxCell>
        <mxCell id="sgNHsKeXC-34GHNsJ1Wm-36" value="&lt;div&gt;&lt;br&gt;&lt;/div&gt;发送需求提交消息&lt;div&gt;@全体成员&lt;br&gt;&lt;div&gt;&lt;span style=&quot;color: rgba(0, 0, 0, 0); font-family: monospace; font-size: 0px; text-align: start; text-wrap: nowrap;&quot;&gt;@%3CmxGraphModel%3E%3Croot%3E%3CmxCell%20id%3D%220%22%2F%3E%3CmxCell%20id%3D%221%22%20parent%3D%220%22%2F%3E%3CmxCell%20id%3D%222%22%20value%3D%22%E5%88%9B%E5%BB%BA%E9%9C%80%E6%B1%82%E4%B8%8B%26lt%3Bdiv%26gt%3B%E7%BA%BF%26lt%3Bspan%20style%3D%26quot%3Bbackground-color%3A%20initial%3B%26quot%3B%26gt%3B%E5%AE%A1%E6%89%B9%E5%B7%A5%E5%8D%95%26lt%3B%2Fspan%26gt%3B%26lt%3B%2Fdiv%26gt%3B%22%20style%3D%22rounded%3D1%3BwhiteSpace%3Dwrap%3Bhtml%3D1%3B%22%20vertex%3D%221%22%20parent%3D%221%22%3E%3CmxGeometry%20x%3D%221120%22%20y%3D%22860%22%20width%3D%22100%22%20height%3D%2240%22%20as%3D%22geometry%22%2F%3E%3C%2FmxCell%3E%3C%2Froot%3E%3C%2FmxGraphModel%3&lt;/span&gt;&lt;/div&gt;&lt;/div&gt;" style="rounded=1;whiteSpace=wrap;html=1;" vertex="1" parent="1">
          <mxGeometry x="1120" y="1020" width="120" height="40" as="geometry" />
        </mxCell>
        <mxCell id="sgNHsKeXC-34GHNsJ1Wm-38" value="&lt;div&gt;&lt;br&gt;&lt;/div&gt;发送需求待评审消息&lt;div&gt;@全体成员&lt;br&gt;&lt;div&gt;&lt;span style=&quot;color: rgba(0, 0, 0, 0); font-family: monospace; font-size: 0px; text-align: start; text-wrap: nowrap;&quot;&gt;@%3CmxGraphModel%3E%3Croot%3E%3CmxCell%20id%3D%220%22%2F%3E%3CmxCell%20id%3D%221%22%20parent%3D%220%22%2F%3E%3CmxCell%20id%3D%222%22%20value%3D%22%E5%88%9B%E5%BB%BA%E9%9C%80%E6%B1%82%E4%B8%8B%26lt%3Bdiv%26gt%3B%E7%BA%BF%26lt%3Bspan%20style%3D%26quot%3Bbackground-color%3A%20initial%3B%26quot%3B%26gt%3B%E5%AE%A1%E6%89%B9%E5%B7%A5%E5%8D%95%26lt%3B%2Fspan%26gt%3B%26lt%3B%2Fdiv%26gt%3B%22%20style%3D%22rounded%3D1%3BwhiteSpace%3Dwrap%3Bhtml%3D1%3B%22%20vertex%3D%221%22%20parent%3D%221%22%3E%3CmxGeometry%20x%3D%221120%22%20y%3D%22860%22%20width%3D%22100%22%20height%3D%2240%22%20as%3D%22geometry%22%2F%3E%3C%2FmxCell%3E%3C%2Froot%3E%3C%2FmxGraphModel%3&lt;/span&gt;&lt;/div&gt;&lt;/div&gt;" style="rounded=1;whiteSpace=wrap;html=1;" vertex="1" parent="1">
          <mxGeometry x="960" y="1180" width="130" height="40" as="geometry" />
        </mxCell>
        <mxCell id="sgNHsKeXC-34GHNsJ1Wm-41" value="开发中" style="ellipse;whiteSpace=wrap;html=1;aspect=fixed;" vertex="1" parent="1">
          <mxGeometry x="660" y="1360" width="80" height="80" as="geometry" />
        </mxCell>
      </root>
    </mxGraphModel>
  </diagram>
</mxfile>
